<svg width="378" height="347" viewBox="0 0 378 347" fill="none" xmlns="http://www.w3.org/2000/svg">
<path fill-rule="evenodd" clip-rule="evenodd" d="M100.785 1.05221C96.9248 2.08221 93.7168 6.48621 92.4448 12.5032C91.8058 15.5262 91.9238 15.6562 96.3358 16.7672C101.865 18.1592 102.266 20.2812 97.3868 22.3202C95.4618 23.1242 93.8868 24.4182 93.8868 25.1952C93.8868 26.1982 92.0118 26.8002 87.4178 27.2712C71.9398 28.8562 51.9858 35.9032 40.3968 43.8772C19.7058 58.1132 6.83676 79.6932 1.32976 109.384C-0.939236 121.622 -0.195235 149.513 2.73076 161.884C9.00576 188.414 23.3078 216.381 34.8898 224.771C38.5258 227.405 38.5468 227.46 36.8308 229.909C35.3568 232.013 35.2178 233.529 35.9008 240.03C36.3428 244.235 37.2108 248.621 37.8298 249.777C40.9978 255.696 59.8098 260.779 86.2818 262.867C93.3748 263.426 99.7868 263.884 100.532 263.884C102.456 263.884 102.425 283.661 100.493 288.284C98.9348 292.013 93.8588 296.3 88.9968 297.996C87.2298 298.611 85.9948 299.326 86.2528 299.583C87.2228 300.553 95.5318 296.081 98.3938 293.048C102.364 288.842 103.719 284.744 103.811 276.669C103.895 269.225 104.965 267.884 110.821 267.884C114.549 267.884 114.626 268.675 111.92 279.253C109.405 289.087 102.27 303.878 100.032 303.899C98.9218 303.91 98.7688 304.158 99.5618 304.662C100.363 305.171 98.7058 308.119 94.3738 313.897C84.7278 326.763 83.6588 333.843 90.4618 339.815C96.2218 344.873 103.196 346.378 120.887 346.381C130.327 346.383 137.968 345.902 140.43 345.151C153.994 341.015 150.905 329.363 134.083 321.21C129.85 319.159 126.285 317.432 126.161 317.373C125.794 317.199 129.402 308.036 130.12 307.317C131.009 306.428 149.953 310.93 151.739 312.454C151.933 312.619 151.37 313.784 150.489 315.042C147.873 318.777 148.414 325.323 151.637 328.93C158.951 337.115 172.674 331.238 171.733 320.323C171.573 318.457 171.991 316.38 172.664 315.707C174.429 313.942 174.167 310.438 172.137 308.667C168.783 305.742 165.685 304.733 154.074 302.787C147.646 301.709 140.028 300.105 137.144 299.221L131.901 297.615L132.644 291.999C133.599 284.784 133.592 274.752 132.629 268.333L131.871 263.283L144.129 262.063C156.838 260.798 173.493 257.173 178.507 254.58C182.878 252.32 184.865 249.614 185.708 244.774L186.472 240.384L189.334 245.237C197.128 258.447 196.755 275.816 188.134 301.102L184.424 311.983L186.406 315.658C189.031 320.526 194.722 322.597 208.891 323.841C217.613 324.606 220.2 325.197 221.789 326.786C226.822 331.819 248.698 334.491 276.887 333.516C311.459 332.319 322.705 327.666 312.137 318.93C307.681 315.246 292.931 310.252 281.65 308.608L273.887 307.477V249.18V190.884H314.887C354.554 190.884 355.952 190.819 357.887 188.884C358.987 187.784 359.887 186.235 359.887 185.441C359.887 183.263 355.855 180.884 352.164 180.884C348.373 180.884 348.26 180.358 350.462 172.943C354.087 160.738 364.762 139.735 373.187 128.234L377.472 122.384L374.43 119.756C368.969 115.039 349.339 112.517 318.387 112.557C297.655 112.583 283.139 113.638 271.171 115.988C266.205 116.963 265.745 117.331 261.535 123.698C255.329 133.083 246.763 150.625 242.77 162.129L239.387 171.874L233.724 171.879L228.061 171.884L229.185 168.905C230.158 166.328 230.008 165.554 228.074 163.155C226.844 161.631 223.439 155.434 220.507 149.384C217.575 143.334 213.983 137.12 212.524 135.574C206.801 129.512 193.477 126.233 178.448 127.189C167.626 127.878 159.785 130.394 149.754 136.397C141.187 141.524 141.07 141.449 140.957 130.685C140.86 121.443 143.217 104.395 147.368 84.3152C149.292 75.0032 150.872 64.4272 150.877 60.8122C150.897 47.4882 145.127 38.5832 132.397 32.2922C127.583 29.9122 125.214 28.1962 125.546 27.3302C125.826 26.6012 125.177 25.4582 124.105 24.7882C122.908 24.0412 122.343 22.8552 122.641 21.7172C123.144 19.7912 124.966 19.1122 130.855 18.6542C133.521 18.4462 134.845 17.6072 136.581 15.0222C139.255 11.0402 140.567 5.16421 139.108 3.70521C135.955 0.552215 109.519 -1.27779 100.785 1.05221ZM134.687 2.94622C138.816 4.10522 138.96 4.27621 138.315 7.26821C137.945 8.98221 136.809 12.0312 135.791 14.0442L133.938 17.7042L129.163 16.1922C126.22 15.2602 118.533 14.4762 109.137 14.1482C98.8768 13.7902 93.8938 13.2512 93.9088 12.5002C93.9208 11.8862 94.7898 9.49322 95.8388 7.18122C97.2758 4.01522 98.5668 2.72622 101.067 1.95822C105.307 0.656217 129.011 1.35322 134.687 2.94622ZM117.887 17.6362C122.298 19.8392 122.578 22.4322 118.387 22.2632C111.324 21.9772 101.905 21.3702 101.896 21.1992C101.891 21.0972 102.326 19.8602 102.862 18.4492C103.739 16.1432 104.37 15.8842 109.112 15.8862C112.13 15.8862 115.885 16.6352 117.887 17.6362ZM131.651 34.2812C138.485 36.4732 143.138 40.6542 146.584 47.6972C150.554 55.8112 150.256 63.2842 144.925 89.3842C141.244 107.405 140.564 112.681 140.133 126.576C139.748 138.973 139.311 142.891 138.267 143.292C137.45 143.605 136.288 142.626 135.369 140.85C134.506 139.181 133.025 137.884 131.983 137.884C129.725 137.884 127.587 142.579 128.053 146.513C128.373 149.207 127.895 149.55 116.535 154.748C107.864 158.716 104.48 159.843 103.926 158.947C103.51 158.274 102.625 155.291 101.96 152.319C100.925 147.693 100.976 146.595 102.319 144.678C104.425 141.671 104.293 139.29 101.887 136.884C98.9388 133.936 94.3278 134.298 91.0808 137.733C89.2198 139.701 84.9608 141.77 77.3138 144.42C65.3038 148.582 66.7278 147.393 58.3648 160.255L56.4978 163.127L64.9428 162.391C69.5868 161.987 74.2868 161.19 75.3868 160.621C76.4868 160.052 80.9478 156.628 85.3008 153.012L93.2158 146.437L92.5878 155.329C92.2138 160.629 91.4668 164.526 90.7378 164.976C88.5248 166.344 73.5538 169.737 64.3868 170.949C55.5708 172.115 42.3998 171.702 36.4358 170.072C33.6108 169.301 33.4958 169.049 33.7528 164.209C33.9768 159.973 33.6028 158.683 31.4508 156.268L28.8808 153.384L26.7808 155.872C25.0788 157.889 24.7938 159.188 25.2778 162.72L25.8758 167.08L21.6308 164.587C16.4648 161.552 15.4288 158.289 13.8658 140.143C11.7128 115.14 16.5098 91.7622 27.3558 74.3962C40.1588 53.8982 62.8548 38.7492 88.8868 33.3252C98.0598 31.4142 124.561 32.0062 131.651 34.2812ZM106.398 42.2822C103.928 44.7522 102.234 50.7412 103.254 53.3992C104.923 57.7482 109.922 55.3382 111.944 49.2102C114.221 42.3122 110.729 37.9512 106.398 42.2822ZM59.2228 55.4512C58.8918 56.3132 59.1338 57.5312 59.7608 58.1582C61.1688 59.5662 64.5028 56.6902 63.4458 54.9802C62.4478 53.3652 59.9148 53.6482 59.2228 55.4512ZM139.588 59.5162C138.014 61.0912 138.948 63.0142 141.137 62.7042C142.375 62.5282 143.387 61.7152 143.387 60.8982C143.387 59.3092 140.753 58.3512 139.588 59.5162ZM56.1208 74.1512C57.0748 74.9382 57.6078 75.8302 57.3048 76.1332C57.0018 76.4362 57.5528 76.6172 58.5308 76.5342C60.0448 76.4062 60.3308 77.3072 60.4618 82.6342C60.5468 86.0722 60.4848 88.8842 60.3228 88.8842C60.1618 88.8842 59.3228 88.1772 58.4578 87.3132C57.5938 86.4482 56.8868 86.2372 56.8868 86.8442C56.8868 87.4512 57.5618 88.2062 58.3868 88.5222C60.5048 89.3352 60.2638 91.2292 58.1368 90.4892C56.5738 89.9442 56.5828 90.0322 58.2278 91.3082C59.5118 92.3052 59.8598 93.3942 59.3788 94.9102C58.6918 97.0752 58.5308 97.9222 57.4238 105.243C57.1038 107.365 56.4618 109.84 55.9988 110.743C55.5358 111.645 55.3868 113.059 55.6678 113.884C56.0748 115.077 55.7838 115.034 54.2468 113.673C52.4188 112.054 52.3158 112.059 52.3158 113.776C52.3158 114.774 52.9578 115.544 53.7438 115.487C54.5288 115.43 55.3698 115.947 55.6128 116.635C55.8848 117.406 55.4858 117.667 54.5718 117.317C52.6918 116.595 51.3098 118.707 52.7318 120.129C53.4918 120.889 54.1818 120.884 55.1148 120.109C56.1218 119.274 56.8358 119.73 58.1768 122.066C59.8138 124.918 59.8158 125.071 58.2118 124.455C56.6888 123.871 56.7038 124.024 58.3478 125.841C60.5478 128.272 61.0248 128.408 60.2488 126.384C59.9318 125.559 60.1338 124.884 60.6968 124.884C61.2598 124.884 61.8898 125.392 62.0968 126.014C62.6508 127.675 71.2338 128.255 75.3198 126.906C77.2638 126.264 80.3438 124 82.1638 121.873C87.2188 115.968 91.8868 100.385 91.8868 89.4202C91.8868 85.7862 92.2258 85.1942 94.8868 84.1902C97.0658 83.3682 97.8868 82.4052 97.8868 80.6712C97.8868 78.0492 96.2128 75.8842 94.1868 75.8842C93.3538 75.8842 93.6048 76.6022 94.8868 77.8842C97.2308 80.2282 97.3708 81.2372 95.5598 82.7402C94.5718 83.5602 91.5718 83.0752 83.8098 80.8412C78.0768 79.1912 69.9348 76.9502 65.7158 75.8612C61.4958 74.7722 57.2208 73.6202 56.2158 73.3012C54.4928 72.7542 54.4868 72.8042 56.1208 74.1512ZM129.887 79.4742C111.884 84.4402 110.887 84.5802 110.887 82.1372C110.887 81.0332 111.573 79.5602 112.411 78.8642C113.249 78.1682 113.702 77.3662 113.417 77.0812C112.554 76.2182 108.887 80.0772 108.887 81.8482C108.887 82.7572 109.595 84.3752 110.461 85.4432C111.327 86.5102 111.707 86.7522 111.307 85.9792C110.828 85.0562 110.973 84.8192 111.732 85.2892C112.381 85.6902 112.887 88.4392 112.887 91.5652C112.887 95.9852 112.623 96.9102 111.601 96.0622C110.633 95.2582 110.316 95.4472 110.316 96.8262C110.316 97.8332 110.837 98.4572 111.474 98.2122C112.242 97.9172 112.461 98.6592 112.125 100.418C111.757 102.346 111.387 102.702 110.768 101.726C110.192 100.817 109.913 100.768 109.902 101.575C109.894 102.23 110.337 103.044 110.887 103.384C111.437 103.724 111.887 104.452 111.887 105.002C111.887 105.552 111.54 105.788 111.116 105.525C110.692 105.263 110.298 109.08 110.242 114.007C110.185 118.934 110.379 122.726 110.671 122.433C110.964 122.141 111.78 122.38 112.486 122.966C113.874 124.118 113.301 126.884 111.673 126.884C111.123 126.884 110.973 126.097 111.339 125.134C111.873 123.731 111.756 123.632 110.746 124.634C109.734 125.639 109.736 126.129 110.754 127.134C111.77 128.136 112.306 127.999 113.454 126.443C114.688 124.771 115.234 124.922 115.085 126.894C115.003 127.992 125.943 127.927 128.099 126.817C132.763 124.417 135.882 120.415 138.109 113.974C140.077 108.281 140.387 105.387 140.387 92.7082V78.0322L143.387 77.0602C151 74.5942 141.274 76.3332 129.887 79.4742ZM70.4728 78.5932C74.0008 79.5332 76.8868 80.8342 76.8868 81.4852C76.8868 82.1352 78.0048 82.9482 79.3718 83.2912C84.1018 84.4782 83.5268 92.3672 78.6588 93.0642C76.8278 93.3262 76.2758 94.2832 75.5928 98.3742C74.8488 102.831 74.9898 103.549 76.9168 105.109C78.5468 106.429 79.5378 106.606 80.9798 105.834C84.2728 104.072 85.8788 100.454 87.1058 92.0362C87.7598 87.5522 88.6528 83.8842 89.0908 83.8842C90.4358 83.8842 89.9438 98.0152 88.3668 104.708C86.2968 113.487 82.3278 121.434 78.7348 123.992C71.9448 128.827 62.2138 126.796 58.4438 119.756C56.5088 116.141 56.5098 116.093 58.7508 106.055C60.5228 98.1202 62.7478 82.7652 62.8688 77.6342C62.8928 76.6112 63.1638 76.6462 70.4728 78.5932ZM57.3938 78.8732C57.0438 79.4392 57.4448 79.6072 58.3348 79.2662C60.0668 78.6012 60.3838 77.8842 58.9458 77.8842C58.4278 77.8842 57.7298 78.3292 57.3938 78.8732ZM139.245 82.6342C140.985 93.1622 139.095 109.104 135.012 118.334C131.645 125.946 123.404 129.075 116.877 125.219C111.942 122.304 110.871 117.183 112.818 105.818C113.33 102.829 114.038 96.9502 114.392 92.7522L115.035 85.1202L120.565 83.5472C125.67 82.0952 126.299 82.1042 128.741 83.6562C133.907 86.9392 134.23 89.8272 129.887 93.8842C127.514 96.1012 126.887 97.5282 126.887 100.714C126.887 108.066 132.287 109.776 135.32 103.384C136.436 101.031 136.887 97.0342 136.887 89.4832C136.887 78.9262 138.066 75.5012 139.245 82.6342ZM58.2198 81.5512C58.5868 81.9172 59.1868 81.9172 59.5538 81.5512C59.9198 81.1842 59.6198 80.8842 58.8868 80.8842C58.1538 80.8842 57.8538 81.1842 58.2198 81.5512ZM56.8868 83.3842C56.8868 83.6592 57.1118 83.8842 57.3868 83.8842C57.6618 83.8842 57.8868 83.6592 57.8868 83.3842C57.8868 83.1092 57.6618 82.8842 57.3868 82.8842C57.1118 82.8842 56.8868 83.1092 56.8868 83.3842ZM28.5628 88.2862C27.8888 90.0432 28.6938 90.8842 31.0538 90.8842C32.2198 90.8842 32.8868 90.1572 32.8868 88.8842C32.8868 86.5552 29.4118 86.0742 28.5628 88.2862ZM109.887 88.3842C109.887 88.6592 110.112 88.8842 110.387 88.8842C110.662 88.8842 110.887 88.6592 110.887 88.3842C110.887 88.1092 110.662 87.8842 110.387 87.8842C110.112 87.8842 109.887 88.1092 109.887 88.3842ZM109.887 91.8252C109.887 92.3432 110.332 93.0412 110.876 93.3772C111.442 93.7272 111.61 93.3262 111.269 92.4362C110.604 90.7042 109.887 90.3872 109.887 91.8252ZM56.8868 93.3842C56.8868 93.6592 57.1118 93.8842 57.3868 93.8842C57.6618 93.8842 57.8868 93.6592 57.8868 93.3842C57.8868 93.1092 57.6618 92.8842 57.3868 92.8842C57.1118 92.8842 56.8868 93.1092 56.8868 93.3842ZM54.8868 95.3842C54.8868 95.6592 55.1118 95.8842 55.3868 95.8842C55.6618 95.8842 55.8868 95.6592 55.8868 95.3842C55.8868 95.1092 55.6618 94.8842 55.3868 94.8842C55.1118 94.8842 54.8868 95.1092 54.8868 95.3842ZM54.8868 98.3842C54.8868 98.6592 55.1118 98.8842 55.3868 98.8842C55.6618 98.8842 55.8868 98.6592 55.8868 98.3842C55.8868 98.1092 55.6618 97.8842 55.3868 97.8842C55.1118 97.8842 54.8868 98.1092 54.8868 98.3842ZM107.887 100.384C107.887 100.659 108.112 100.884 108.387 100.884C108.662 100.884 108.887 100.659 108.887 100.384C108.887 100.109 108.662 99.8842 108.387 99.8842C108.112 99.8842 107.887 100.109 107.887 100.384ZM54.4508 102.591C53.9088 104.016 54.0228 104.131 55.0108 103.151C55.6948 102.472 56.0018 101.665 55.6938 101.358C55.3858 101.05 54.8268 101.605 54.4508 102.591ZM107.887 103.384C107.887 103.659 108.112 103.884 108.387 103.884C108.662 103.884 108.887 103.659 108.887 103.384C108.887 103.109 108.662 102.884 108.387 102.884C108.112 102.884 107.887 103.109 107.887 103.384ZM54.8868 105.384C54.8868 105.659 55.1118 105.884 55.3868 105.884C55.6618 105.884 55.8868 105.659 55.8868 105.384C55.8868 105.109 55.6618 104.884 55.3868 104.884C55.1118 104.884 54.8868 105.109 54.8868 105.384ZM107.887 106.884C107.887 107.617 108.187 107.917 108.554 107.551C108.92 107.184 108.92 106.584 108.554 106.217C108.187 105.851 107.887 106.151 107.887 106.884ZM52.8868 107.277C52.8868 107.493 53.5848 107.938 54.4388 108.266C55.3288 108.607 55.7298 108.439 55.3798 107.873C54.7928 106.922 52.8868 106.467 52.8868 107.277ZM53.2198 110.551C53.5868 110.917 54.1868 110.917 54.5538 110.551C54.9198 110.184 54.6198 109.884 53.8868 109.884C53.1538 109.884 52.8538 110.184 53.2198 110.551ZM107.887 110.384C107.887 110.659 108.112 110.884 108.387 110.884C108.662 110.884 108.887 110.659 108.887 110.384C108.887 110.109 108.662 109.884 108.387 109.884C108.112 109.884 107.887 110.109 107.887 110.384ZM105.887 112.384C105.887 112.659 106.112 112.884 106.387 112.884C106.662 112.884 106.887 112.659 106.887 112.384C106.887 112.109 106.662 111.884 106.387 111.884C106.112 111.884 105.887 112.109 105.887 112.384ZM107.887 113.884C107.887 114.617 108.187 114.917 108.554 114.551C108.92 114.184 108.92 113.584 108.554 113.217C108.187 112.851 107.887 113.151 107.887 113.884ZM105.887 115.384C105.887 115.659 106.112 115.884 106.387 115.884C106.662 115.884 106.887 115.659 106.887 115.384C106.887 115.109 106.662 114.884 106.387 114.884C106.112 114.884 105.887 115.109 105.887 115.384ZM107.887 117.384C107.887 117.659 108.112 117.884 108.387 117.884C108.662 117.884 108.887 117.659 108.887 117.384C108.887 117.109 108.662 116.884 108.387 116.884C108.112 116.884 107.887 117.109 107.887 117.384ZM54.8868 118.884C54.8868 119.434 54.4368 119.884 53.8868 119.884C53.3368 119.884 52.8868 119.434 52.8868 118.884C52.8868 118.334 53.3368 117.884 53.8868 117.884C54.4368 117.884 54.8868 118.334 54.8868 118.884ZM32.3868 120.451C28.9408 122.237 22.8868 127.823 22.8868 129.217C22.8868 129.734 25.0588 128.126 27.7128 125.643C35.0658 118.766 38.8048 118.438 40.3358 124.538C41.1158 127.646 39.3668 136.598 36.8178 142.544C35.7948 144.931 35.3298 146.884 35.7838 146.884C37.3018 146.884 41.0818 135.457 41.6148 129.261C42.0718 123.94 41.8618 122.859 40.0138 121.011C37.4818 118.479 36.3528 118.396 32.3868 120.451ZM105.887 119.384C105.887 119.659 106.112 119.884 106.387 119.884C106.662 119.884 106.887 119.659 106.887 119.384C106.887 119.109 106.662 118.884 106.387 118.884C106.112 118.884 105.887 119.109 105.887 119.384ZM107.887 120.384C107.887 120.659 108.112 120.884 108.387 120.884C108.662 120.884 108.887 120.659 108.887 120.384C108.887 120.109 108.662 119.884 108.387 119.884C108.112 119.884 107.887 120.109 107.887 120.384ZM55.2198 122.551C55.5868 122.917 56.1868 122.917 56.5538 122.551C56.9198 122.184 56.6198 121.884 55.8868 121.884C55.1538 121.884 54.8538 122.184 55.2198 122.551ZM105.887 122.384C105.887 122.659 106.112 122.884 106.387 122.884C106.662 122.884 106.887 122.659 106.887 122.384C106.887 122.109 106.662 121.884 106.387 121.884C106.112 121.884 105.887 122.109 105.887 122.384ZM107.887 124.384C107.887 124.659 108.112 124.884 108.387 124.884C108.662 124.884 108.887 124.659 108.887 124.384C108.887 124.109 108.662 123.884 108.387 123.884C108.112 123.884 107.887 124.109 107.887 124.384ZM54.8868 125.384C54.8868 125.659 55.1118 125.884 55.3868 125.884C55.6618 125.884 55.8868 125.659 55.8868 125.384C55.8868 125.109 55.6618 124.884 55.3868 124.884C55.1118 124.884 54.8868 125.109 54.8868 125.384ZM163.387 125.813C159.864 126.663 155.528 128.858 156.148 129.478C156.385 129.716 158.21 129.229 160.201 128.397C162.193 127.565 164.85 126.877 166.105 126.869C167.36 126.86 169.062 126.417 169.887 125.884C171.066 125.122 170.852 124.933 168.887 125.002C167.512 125.05 165.037 125.415 163.387 125.813ZM56.8868 127.384C56.8868 127.659 57.1118 127.884 57.3868 127.884C57.6618 127.884 57.8868 127.659 57.8868 127.384C57.8868 127.109 57.6618 126.884 57.3868 126.884C57.1118 126.884 56.8868 127.109 56.8868 127.384ZM61.8868 128.884C61.8868 129.617 62.1868 129.917 62.5538 129.551C62.9198 129.184 62.9198 128.584 62.5538 128.217C62.1868 127.851 61.8868 128.151 61.8868 128.884ZM64.8868 129.384C64.8868 129.659 65.1118 129.884 65.3868 129.884C65.6618 129.884 65.8868 129.659 65.8868 129.384C65.8868 129.109 65.6618 128.884 65.3868 128.884C65.1118 128.884 64.8868 129.109 64.8868 129.384ZM112.887 129.384C112.887 129.659 113.112 129.884 113.387 129.884C113.662 129.884 113.887 129.659 113.887 129.384C113.887 129.109 113.662 128.884 113.387 128.884C113.112 128.884 112.887 129.109 112.887 129.384ZM116.22 129.551C116.587 129.917 117.187 129.917 117.554 129.551C117.92 129.184 117.62 128.884 116.887 128.884C116.154 128.884 115.854 129.184 116.22 129.551ZM119.887 129.384C119.887 129.659 120.112 129.884 120.387 129.884C120.662 129.884 120.887 129.659 120.887 129.384C120.887 129.109 120.662 128.884 120.387 128.884C120.112 128.884 119.887 129.109 119.887 129.384ZM317.664 142.441C320.944 144.738 320.766 151.686 317.323 155.778C313.061 160.843 305.484 161.725 302.652 157.484C300.061 153.603 303.99 144.618 309.288 142.312C313.361 140.538 314.984 140.564 317.664 142.441ZM91.8868 144.384C91.8868 144.659 91.6618 144.884 91.3868 144.884C91.1118 144.884 90.8868 144.659 90.8868 144.384C90.8868 144.109 91.1118 143.884 91.3868 143.884C91.6618 143.884 91.8868 144.109 91.8868 144.384ZM223.887 148.249C223.887 150.876 226.327 157.884 227.241 157.884C227.738 157.884 224.96 146.646 224.295 145.967C224.071 145.738 223.887 146.765 223.887 148.249ZM229.862 150.449C228.662 153.606 228.642 155.949 229.801 157.78C230.39 158.709 230.802 157.289 231.036 153.528C231.229 150.422 231.263 147.882 231.112 147.883C230.961 147.883 230.399 149.038 229.862 150.449ZM209.354 165.453C210.411 167.416 212.201 169.553 213.332 170.203C215.004 171.164 212.632 171.477 200.599 171.884C184.824 172.417 184.468 172.541 183.274 177.884C182.936 179.398 181.467 180.976 179.551 181.884C175.542 183.784 174.877 187.176 178.1 189.288C180.08 190.586 185.979 190.833 216.965 190.92C237.057 190.976 255.384 191.275 257.691 191.585L261.887 192.147V250.016V307.884L259.137 307.9C257.625 307.908 253.72 308.543 250.46 309.309L244.533 310.704L240.451 306.503C235.934 301.856 227.346 297.143 221.766 296.249L218.145 295.67L217.59 283.027C217.286 276.073 216.287 267.684 215.37 264.384C210.037 245.173 198.251 230.962 182.255 224.454C177.273 222.428 176.93 222.094 178.496 220.804C182.502 217.505 185.887 211.548 185.887 207.799C185.887 201.126 184.491 199.315 174.179 192.607C165.452 186.93 152.887 175.297 152.887 172.894C152.887 172.413 153.721 171.754 154.74 171.431C155.76 171.107 158.747 169.312 161.378 167.44C165.319 164.639 166.592 164.201 168.59 164.961C169.925 165.469 172.831 165.884 175.048 165.884C177.574 165.884 180.21 166.69 182.11 168.043C188.617 172.676 198.37 171.308 201.07 165.383C201.67 164.065 203.112 162.8 204.274 162.572C205.436 162.343 206.622 162.095 206.91 162.02C207.197 161.945 208.297 163.49 209.354 165.453ZM156.619 179.962C159.714 183.304 165.203 188.108 168.817 190.636C178.347 197.304 179.887 198.883 179.887 201.982C179.887 210.661 161.737 219.307 134.887 223.418C110.785 227.108 62.9568 223.453 49.3868 216.884C44.0848 214.317 36.1888 205.943 31.4538 197.864C28.3088 192.497 21.7858 178.647 22.2078 178.232C22.3068 178.136 26.4028 180.024 31.3118 182.428C45.1838 189.223 55.1568 191.274 74.6078 191.334L90.8278 191.384L90.2548 194.975L89.6818 198.566L104.039 203.725C111.935 206.562 118.956 208.884 119.641 208.884C120.525 208.884 120.887 206.708 120.887 201.401V193.918L115.788 191.334C112.983 189.912 110.968 188.469 111.311 188.127C111.653 187.785 115.635 186.44 120.16 185.139C124.685 183.837 133.112 180.83 138.887 178.456C144.662 176.082 149.748 174.082 150.19 174.012C150.631 173.941 153.525 176.619 156.619 179.962ZM355.953 182.919C357.017 183.489 357.887 184.823 357.887 185.884C357.887 186.945 357.017 188.279 355.953 188.849C354.662 189.539 325.247 189.884 267.564 189.884C185.116 189.884 181.003 189.799 178.837 188.045L176.566 186.205L178.726 184.045L180.887 181.884H267.453C325.212 181.884 354.662 182.228 355.953 182.919ZM271.887 251.555C271.887 299.124 272.117 308.428 273.35 310.812C274.754 313.527 277.625 315.479 278.673 314.431C278.948 314.156 278.421 313.643 277.502 313.29C276.583 312.937 275.344 311.737 274.747 310.623C273.706 308.677 273.864 308.623 278.722 309.268C296.061 311.568 314.887 319.557 314.887 324.615C314.887 325.375 312.974 326.832 310.637 327.854C303.35 331.038 291.61 332.263 268.387 332.263C245.164 332.263 233.424 331.038 226.137 327.854C221.362 325.767 220.84 323.94 224.137 320.862C228.415 316.868 245.186 310.957 256.637 309.407C262.582 308.602 263.343 309.593 259.252 312.811C257.803 313.951 257.148 314.884 257.798 314.884C258.447 314.884 260.082 313.779 261.432 312.429L263.887 309.975V251.536V193.097L267.887 194.112L271.887 195.127V251.555ZM159.887 198.884C159.887 200.217 160.554 200.884 161.887 200.884C163.22 200.884 163.887 200.217 163.887 198.884C163.887 197.551 163.22 196.884 161.887 196.884C160.554 196.884 159.887 197.551 159.887 198.884ZM45.2228 200.451C44.3888 202.623 46.5048 204.666 48.0198 203.151C49.2998 201.871 48.5068 198.884 46.8868 198.884C46.3018 198.884 45.5538 199.589 45.2228 200.451ZM130.352 210.941C128.081 214.615 134.596 220.676 139.495 219.446C145.006 218.063 140.144 209.884 133.811 209.884C132.268 209.884 130.711 210.36 130.352 210.941ZM85.2668 215.336C84.5698 217.151 85.5818 218.884 87.3388 218.884C88.8688 218.884 89.7968 216.969 89.1558 215.134C88.5588 213.421 85.9498 213.557 85.2668 215.336ZM135.572 299.97C137.12 300.568 143.562 301.935 149.887 303.008C163.898 305.386 167.721 306.523 170.637 309.181C173.532 311.821 173.506 314.645 170.575 315.98C168.769 316.803 166.964 316.551 162.325 314.829C153.249 311.459 134.665 305.986 132.118 305.932C130.156 305.89 129.938 305.512 130.506 303.134C131.642 298.38 131.57 298.426 135.572 299.97ZM69.8068 302.387C56.8178 304.704 53.9758 305.686 50.1368 309.183C47.5068 311.579 47.2498 314.11 49.4508 315.937C50.4418 316.759 50.8018 318.085 50.4338 319.551C50.1148 320.825 50.4808 323.37 51.2488 325.208C54.5808 333.183 63.0278 335.333 69.3208 329.808C73.9708 325.725 74.9588 320.84 72.1648 315.74L70.1378 312.038L76.6798 310.267C80.2788 309.293 82.7098 308.325 82.0818 308.116C81.4528 307.906 74.8778 309.823 67.4678 312.374C56.3488 316.203 53.6278 316.816 51.8818 315.881C48.7078 314.183 49.5918 309.944 53.6068 307.608C55.3848 306.574 62.9248 304.686 70.4408 303.393C77.9278 302.104 84.3158 300.788 84.6368 300.467C85.4428 299.661 84.1498 299.829 69.8068 302.387ZM88.3868 306.361C81.6828 308.085 84.8268 308.149 92.3868 306.443C95.6868 305.698 97.2618 305.086 95.8868 305.082C94.5118 305.079 91.1368 305.654 88.3868 306.361Z" fill="white"/>
</svg>
